<svg width="1000" height="80" viewBox="0 0 1000 80" fill="none" xmlns="http://www.w3.org/2000/svg">
<mask id="path-1-inside-1_2_4" fill="white">
<path d="M0 0H1000V80H0V0Z"/>
</mask>
<path d="M0 0H1000V80H0V0Z" fill="white"/>
<g clip-path="url(#clip0_2_4)">
<path d="M478.386 46.7101C478.243 46.3073 478.075 45.9176 477.916 45.5565C477.67 45.0011 477.413 44.4446 477.164 43.9067L477.144 43.864C474.925 39.0589 472.544 34.1881 470.066 29.387L469.961 29.1832C469.708 28.6929 469.447 28.186 469.178 27.6879C468.86 27.0575 468.474 26.4636 468.028 25.9167C467.524 25.3165 466.896 24.8338 466.185 24.5027C465.475 24.1715 464.701 23.9999 463.917 24C463.133 24.0001 462.358 24.1719 461.648 24.5032C460.938 24.8346 460.309 25.3174 459.806 25.9177C459.359 26.4648 458.974 27.0585 458.656 27.6886C458.385 28.1912 458.121 28.7028 457.866 29.1976L457.769 29.387C455.291 34.1884 452.909 39.0592 450.69 43.8639L450.658 43.9338C450.413 44.463 450.161 45.0102 449.919 45.5563C449.759 45.9171 449.592 46.3065 449.448 46.7103C449.037 47.8104 448.906 48.9953 449.067 50.1585C449.238 51.334 449.713 52.4447 450.446 53.3804C451.179 54.3161 452.144 55.0444 453.246 55.4932C454.078 55.8299 454.968 56.002 455.866 56C456.148 55.9999 456.43 55.9835 456.71 55.9509C457.846 55.8062 458.941 55.4366 459.932 54.8639C461.232 54.1338 462.515 53.0638 463.917 51.5348C465.319 53.0638 466.603 54.1338 467.903 54.8639C468.893 55.4367 469.989 55.8062 471.124 55.9509C471.405 55.9835 471.686 55.9999 471.969 56C472.866 56.002 473.756 55.8299 474.588 55.4932C475.69 55.0444 476.655 54.3161 477.389 53.3804C478.122 52.4447 478.597 51.3341 478.768 50.1585C478.929 48.9952 478.798 47.8103 478.386 46.7101ZM463.917 48.377C462.182 46.1769 461.068 44.1338 460.677 42.421C460.517 41.7792 460.479 41.1131 460.566 40.4573C460.634 39.9766 460.81 39.5176 461.082 39.1148C461.416 38.6814 461.846 38.3304 462.337 38.0889C462.829 37.8475 463.37 37.7219 463.917 37.7219C464.465 37.722 465.006 37.8476 465.498 38.0892C465.989 38.3307 466.419 38.6817 466.753 39.1151C467.024 39.5181 467.201 39.9771 467.269 40.4579C467.356 41.114 467.318 41.7803 467.157 42.4223C466.766 44.1349 465.653 46.1774 463.917 48.377ZM476.741 49.8689C476.621 50.6908 476.289 51.4674 475.776 52.1216C475.264 52.7759 474.589 53.2852 473.818 53.599C473.039 53.9111 472.194 54.0217 471.361 53.9205C470.495 53.8089 469.66 53.5239 468.907 53.0824C467.75 52.4325 466.579 51.4348 465.261 49.9712C467.359 47.3846 468.669 45.0005 469.154 42.877C469.372 41.984 469.42 41.0579 469.294 40.1475C469.179 39.3632 468.888 38.615 468.442 37.9593C467.919 37.2519 467.238 36.6768 466.452 36.2805C465.666 35.8842 464.798 35.6777 463.917 35.6777C463.037 35.6777 462.169 35.8841 461.383 36.2803C460.597 36.6765 459.915 37.2515 459.393 37.9589C458.947 38.6144 458.656 39.3624 458.541 40.1465C458.415 41.0566 458.462 41.9822 458.68 42.8749C459.165 44.9993 460.475 47.384 462.573 49.9714C461.256 51.4348 460.084 52.4325 458.928 53.0825C458.175 53.5239 457.34 53.809 456.474 53.9205C455.641 54.0217 454.795 53.9111 454.016 53.599C453.246 53.2852 452.571 52.7759 452.058 52.1217C451.546 51.4674 451.213 50.6908 451.094 49.8689C450.979 49.0334 451.077 48.1825 451.378 47.3946C451.493 47.0728 451.627 46.757 451.793 46.3818C452.027 45.851 452.277 45.3115 452.518 44.7898L452.55 44.7197C454.756 39.9419 457.125 35.0982 459.589 30.3229L459.688 30.1328C459.938 29.646 460.198 29.1427 460.46 28.6563C460.71 28.155 461.013 27.6817 461.364 27.2444C461.675 26.869 462.065 26.5668 462.506 26.3593C462.947 26.1519 463.429 26.0443 463.917 26.0442C464.405 26.0442 464.887 26.1517 465.328 26.3591C465.769 26.5665 466.159 26.8687 466.47 27.244C466.821 27.681 467.124 28.1541 467.374 28.6554C467.634 29.1374 467.891 29.6362 468.14 30.1186L468.245 30.3232C470.71 35.0979 473.078 39.9415 475.285 44.7201L475.305 44.7631C475.55 45.2936 475.803 45.8419 476.042 46.382C476.208 46.7577 476.342 47.0738 476.457 47.3944C476.758 48.1824 476.855 49.0333 476.741 49.8689Z" fill="#FF385C"/>
<path d="M490.685 48.1196C489.886 48.1196 489.15 47.9594 488.479 47.6391C487.808 47.3188 487.233 46.8703 486.721 46.2937C486.21 45.7172 485.826 45.0445 485.539 44.3078C485.251 43.539 485.123 42.7062 485.123 41.8093C485.123 40.9124 485.283 40.0475 485.57 39.2787C485.858 38.51 486.274 37.8373 486.785 37.2287C487.297 36.6521 487.904 36.1716 488.607 35.8513C489.31 35.531 490.045 35.3708 490.876 35.3708C491.676 35.3708 492.379 35.531 493.018 35.8833C493.657 36.2037 494.169 36.6841 494.584 37.2927L494.68 35.7232H497.621V47.7992H494.68L494.584 46.0375C494.169 46.6781 493.625 47.1906 492.922 47.575C492.283 47.9274 491.516 48.1196 490.685 48.1196ZM491.452 45.2367C492.027 45.2367 492.539 45.0765 493.018 44.7882C493.466 44.4679 493.817 44.0515 494.105 43.539C494.361 43.0265 494.488 42.4179 494.488 41.7452C494.488 41.0725 494.361 40.4639 494.105 39.9514C493.849 39.4389 493.466 39.0225 493.018 38.7022C492.571 38.3818 492.027 38.2537 491.452 38.2537C490.877 38.2537 490.365 38.4139 489.886 38.7022C489.438 39.0225 489.087 39.4389 488.799 39.9514C488.543 40.4639 488.415 41.0725 488.415 41.7452C488.415 42.4179 488.543 43.0265 488.799 43.539C489.055 44.0515 489.438 44.4679 489.886 44.7882C490.365 45.0765 490.877 45.2367 491.452 45.2367ZM502.639 32.4559C502.639 32.8082 502.575 33.1286 502.415 33.3848C502.256 33.6411 502.032 33.8653 501.744 34.0255C501.457 34.1856 501.137 34.2497 500.817 34.2497C500.498 34.2497 500.178 34.1856 499.89 34.0255C499.603 33.8653 499.379 33.6411 499.219 33.3848C499.059 33.0965 498.995 32.8082 498.995 32.4559C498.995 32.1035 499.059 31.7832 499.219 31.527C499.379 31.2387 499.603 31.0465 499.89 30.8863C500.178 30.7262 500.498 30.6621 500.817 30.6621C501.137 30.6621 501.457 30.7262 501.744 30.8863C502.032 31.0465 502.256 31.2707 502.415 31.527C502.543 31.7832 502.639 32.0715 502.639 32.4559ZM499.219 47.7672V35.6911H502.415V47.7672H499.219ZM510.95 38.8623V38.8943C510.79 38.8303 510.598 38.7982 510.438 38.7662C510.247 38.7342 510.087 38.7342 509.895 38.7342C509 38.7342 508.329 38.9904 507.881 39.535C507.402 40.0795 507.178 40.8483 507.178 41.8413V47.7672H503.982V35.6911H506.922L507.018 37.517C507.338 36.8763 507.721 36.3958 508.265 36.0435C508.776 35.6911 509.384 35.531 510.087 35.531C510.311 35.531 510.534 35.563 510.726 35.595C510.822 35.6271 510.886 35.6271 510.95 35.6591V38.8623ZM512.228 47.7672V30.7262H515.425V37.2287C515.872 36.6521 516.384 36.2036 517.023 35.8513C517.662 35.531 518.365 35.3388 519.164 35.3388C519.963 35.3388 520.699 35.4989 521.37 35.8193C522.041 36.1396 522.616 36.588 523.128 37.1646C523.639 37.7412 524.023 38.4139 524.311 39.1506C524.598 39.9194 524.726 40.7522 524.726 41.6491C524.726 42.546 524.566 43.4109 524.279 44.1796C523.991 44.9484 523.576 45.6211 523.064 46.2297C522.553 46.8063 521.945 47.2867 521.242 47.6071C520.539 47.9274 519.804 48.0875 518.973 48.0875C518.174 48.0875 517.47 47.9274 516.831 47.575C516.192 47.2547 515.68 46.7742 515.265 46.1656L515.169 47.7352L512.228 47.7672ZM518.397 45.2367C518.973 45.2367 519.484 45.0765 519.964 44.7882C520.411 44.4679 520.763 44.0515 521.05 43.539C521.306 43.0265 521.434 42.4179 521.434 41.7452C521.434 41.0725 521.306 40.4639 521.05 39.9514C520.763 39.4389 520.411 39.0225 519.964 38.7022C519.516 38.3818 518.973 38.2537 518.397 38.2537C517.822 38.2537 517.311 38.4139 516.831 38.7022C516.384 39.0225 516.032 39.4389 515.744 39.9514C515.489 40.4639 515.361 41.0725 515.361 41.7452C515.361 42.4179 515.489 43.0265 515.744 43.539C516 44.0515 516.384 44.4679 516.831 44.7882C517.311 45.0765 517.822 45.2367 518.397 45.2367ZM525.941 47.7672V35.6911H528.881L528.977 37.2607C529.329 36.6841 529.808 36.2357 530.416 35.8833C531.023 35.531 531.726 35.3708 532.525 35.3708C533.42 35.3708 534.187 35.595 534.827 36.0115C535.498 36.4279 536.009 37.0365 536.361 37.8053C536.713 38.574 536.904 39.5029 536.904 40.56V47.7992H533.708V40.9764C533.708 40.1436 533.516 39.4709 533.133 38.9904C532.749 38.51 532.238 38.2537 531.566 38.2537C531.087 38.2537 530.671 38.3498 530.288 38.574C529.936 38.7982 529.649 39.0865 529.425 39.503C529.201 39.8873 529.105 40.3678 529.105 40.8483V47.7672H525.941ZM538.503 47.7672V30.7262H541.699V37.2287C542.146 36.6521 542.658 36.2036 543.297 35.8513C543.936 35.531 544.64 35.3388 545.439 35.3388C546.238 35.3388 546.973 35.4989 547.644 35.8193C548.315 36.1396 548.891 36.588 549.402 37.1646C549.914 37.7412 550.297 38.4139 550.585 39.1506C550.873 39.9194 551 40.7522 551 41.6491C551 42.546 550.841 43.4109 550.553 44.1796C550.265 44.9484 549.85 45.6211 549.338 46.2297C548.827 46.8063 548.219 47.2867 547.516 47.6071C546.813 47.9274 546.078 48.0875 545.247 48.0875C544.448 48.0875 543.745 47.9274 543.105 47.575C542.466 47.2547 541.955 46.7742 541.539 46.1656L541.443 47.7352L538.503 47.7672ZM544.703 45.2367C545.279 45.2367 545.79 45.0765 546.27 44.7882C546.717 44.4679 547.069 44.0515 547.356 43.539C547.612 43.0265 547.74 42.4179 547.74 41.7452C547.74 41.0725 547.612 40.4639 547.356 39.9514C547.101 39.4389 546.717 39.0225 546.27 38.7022C545.822 38.3818 545.279 38.2537 544.703 38.2537C544.128 38.2537 543.617 38.4139 543.137 38.7022C542.69 39.0225 542.338 39.4389 542.05 39.9514C541.763 40.4639 541.667 41.0725 541.667 41.7452C541.667 42.4179 541.795 43.0265 542.05 43.539C542.306 44.0515 542.69 44.4679 543.137 44.7882C543.617 45.0765 544.096 45.2367 544.703 45.2367Z" fill="#FF385C"/>
</g>
<path d="M1000 79H0V81H1000V79Z" fill="#DEE2E6" mask="url(#path-1-inside-1_2_4)"/>
<defs>
<clipPath id="clip0_2_4">
<rect width="102" height="32" fill="white" transform="translate(449 24)"/>
</clipPath>
</defs>
</svg>
